HIERARCHY
ROOT Hips
{
	OFFSET -0.179506 -22.333345 2.821913
	CHANNELS 6 Xposition Yposition Zposition Zrotation Yrotation Xrotation 
	JOINT LeftUpLeg
	{
		OFFSET 6.951974 -9.140623 -0.681533
		CHANNELS 3 Zrotation Yrotation Xrotation
		JOINT LeftLeg
		{
			OFFSET 3.427654 -37.519855 -0.449580
			CHANNELS 3 Zrotation Yrotation Xrotation
			JOINT LeftFoot
			{
				OFFSET -1.359570 -39.796059 -4.369333
				CHANNELS 3 Zrotation Yrotation Xrotation
				JOINT LeftToe
				{
					OFFSET 2.635814 -5.579078 11.928840
					CHANNELS 3 Zrotation Yrotation Xrotation
					End Site
					{
						OFFSET 0.000000 0.000000 0.000000
					}
				}
			}
		}
	}
	JOINT RightUpLeg
	{
		OFFSET -6.767048 -9.052170 -0.431982
		CHANNELS 3 Zrotation Yrotation Xrotation
		JOINT RightLeg
		{
			OFFSET -3.829005 -38.256897 -0.885003
			CHANNELS 3 Zrotation Yrotation Xrotation
			JOINT RightFoot
			{
				OFFSET 1.577377 -39.841461 -4.231180
				CHANNELS 3 Zrotation Yrotation Xrotation
				JOINT RightToe
				{
					OFFSET -2.537174 -4.814398 12.334795
					CHANNELS 3 Zrotation Yrotation Xrotation
					End Site
					{
						OFFSET 0.000000 0.000000 0.000000
					}
				}
			}
		}
	}
	JOINT Spine
	{
		OFFSET -0.253288 10.896323 -2.669631
		CHANNELS 3 Zrotation Yrotation Xrotation
		JOINT Spine1
		{
			OFFSET 0.548704 13.518043 0.109247
			CHANNELS 3 Zrotation Yrotation Xrotation
			JOINT Spine2
			{
				OFFSET 0.145701 5.292222 2.542457
				CHANNELS 3 Zrotation Yrotation Xrotation
				JOINT Neck
				{
					OFFSET -0.277840 21.387037 -4.285703
					CHANNELS 3 Zrotation Yrotation Xrotation
					JOINT Head
					{
						OFFSET 0.515184 6.496960 5.134897
						CHANNELS 3 Zrotation Yrotation Xrotation
						End Site
						{
							OFFSET 0.000000 0.000000 0.000000
						}
					}
				}
				JOINT LeftShoulder
				{
					OFFSET 7.884473 12.174932 -3.408961
					CHANNELS 3 Zrotation Yrotation Xrotation
					JOINT LeftArm
					{
						OFFSET 9.097692 3.046888 -0.886815
						CHANNELS 3 Zrotation Yrotation Xrotation
						JOINT LeftForeArm
						{
							OFFSET 25.961220 -1.277207 -2.745643
							CHANNELS 3 Zrotation Yrotation Xrotation
							JOINT LeftHand
							{
								OFFSET 24.923361 0.898606 -0.117091
								CHANNELS 3 Zrotation Yrotation Xrotation
								End Site
								{
									OFFSET 0.000000 0.000000 0.000000
								}
							}
						}
					}
				}
				JOINT RightShoulder
				{
					OFFSET -8.175920 11.883285 -3.861528
					CHANNELS 3 Zrotation Yrotation Xrotation
					JOINT RightArm
					{
						OFFSET -9.601238 3.255117 -0.914307
						CHANNELS 3 Zrotation Yrotation Xrotation
						JOINT RightForeArm
						{
							OFFSET -25.374195 -1.332924 -2.140099
							CHANNELS 3 Zrotation Yrotation Xrotation
							JOINT RightHand
							{
								OFFSET -25.529810 0.777228 -0.555919
								CHANNELS 3 Zrotation Yrotation Xrotation
								End Site
								{
									OFFSET 0.000000 0.000000 0.000000
								}
							}
						}
					}
				}
			}
		}
	}
}
MOTION
Frames: 7
Frame Time: 0.033333
-0.179506 85.075928 2.821913 -30.660568 -77.327180 -57.709578 6.426439 0.200472 -1.165625 -0.132675 -4.148325 5.067646 -3.834776 8.390483 19.167620 -1.329025 -0.695783 -0.464293 -3.842182 -6.433621 1.047481 1.339625 -3.160996 5.726075 6.953440 -11.059940 18.419738 -1.194947 0.148688 0.583610 -0.915164 -1.093017 12.662060 -0.265504 -1.959036 -10.377663 2.394850 -3.158991 7.096573 -3.076877 -3.513494 -4.592328 4.504905 3.058797 -3.669620 -15.909026 0.852020 3.484149 -47.204872 -1.594820 11.828601 -5.735469 -20.333113 19.728519 -17.998486 -10.381910 2.799952 14.233160 2.854273 3.819870 47.257360 1.614706 13.526627 2.284043 13.578694 9.879604 15.711374 4.575057 5.574187 
-0.036407 85.109306 3.184602 -31.580773 -77.406280 -57.096775 6.329893 0.290365 -0.958365 -0.077930 -4.130629 5.257426 -3.744508 8.505382 19.089310 -1.386321 -0.748559 -0.567907 -3.764462 -6.475992 1.465908 1.093679 -2.939405 5.529070 7.058682 -11.278048 18.912497 -1.334669 0.279699 0.507446 -0.912169 -1.013327 12.565341 -0.325541 -1.994405 -10.300294 2.479195 -3.111180 7.050590 -3.376117 -3.646366 -4.075552 4.546986 3.043976 -3.697284 -15.811389 0.359389 3.426788 -47.056611 -2.105875 11.771095 -5.888325 -20.376157 19.848020 -17.987341 -10.126710 2.993348 14.264111 3.489728 3.813546 46.921225 2.235311 13.390808 2.300553 13.362910 9.482614 15.897124 4.310446 5.786904 
0.084299 85.147659 3.441600 -33.424224 -77.375594 -55.490159 6.227066 0.028848 -0.920226 0.142930 -4.229048 5.491559 -3.677835 8.719842 19.030397 -1.401140 -0.788300 -0.649623 -3.558416 -6.353874 1.592331 0.858799 -2.860817 5.703455 7.107787 -11.584404 19.297355 -1.484068 0.321018 0.458674 -0.921080 -0.995080 12.837790 -0.258640 -1.901440 -10.339669 2.520553 -3.098844 7.032823 -3.603792 -3.830814 -3.702739 4.506191 2.960738 -3.520010 -15.210458 -0.219152 3.053250 -47.022712 -3.075830 11.947674 -6.025537 -20.966100 19.664730 -18.327699 -9.596013 2.684878 13.946970 4.165877 3.675168 46.355571 3.366224 13.399023 2.270134 13.631099 8.922665 16.303754 4.066724 5.409888 
0.146066 85.189911 3.724619 -33.651584 -77.392370 -55.332463 6.108180 0.012090 -0.888783 0.096809 -4.121847 5.675984 -3.457344 8.515337 18.856186 -1.434725 -0.713051 -0.705353 -3.603328 -6.356740 1.808562 0.724427 -2.456675 5.532924 7.153254 -11.473756 19.286492 -1.308565 0.280200 0.526649 -1.040440 -0.957370 12.891489 -0.175635 -1.949080 -10.017371 2.523816 -3.077400 6.890932 -3.878278 -3.746990 -3.203842 4.481084 3.243921 -3.285896 -14.838575 -1.154431 2.690061 -46.561662 -4.279232 11.580706 -6.063940 -21.352159 18.710644 -18.547173 -9.406140 2.672972 13.613810 4.981806 3.374874 45.421707 4.700034 13.446745 2.344681 14.100559 8.350879 16.663547 4.005217 5.981268 
0.306314 85.231331 4.144250 -35.319530 -77.234717 -53.936940 5.765062 -0.195359 -0.683965 0.332108 -3.948593 5.717475 -3.340906 8.758536 18.724738 -1.380605 -0.795126 -0.779667 -3.474313 -5.996745 2.047380 0.308605 -2.185171 5.690400 7.210565 -11.813213 19.508131 -1.473666 0.216872 0.448967 -1.093803 -0.858432 13.104323 -0.146993 -1.864737 -9.578218 2.597287 -2.893569 6.491740 -4.121741 -4.006603 -2.802720 4.610946 2.954770 -3.043940 -13.874433 -2.367564 2.299132 -46.294868 -6.091314 11.662640 -6.309144 -22.389907 18.341102 -18.643460 -9.191988 2.421971 13.041275 6.062503 2.913610 44.803216 6.334337 13.301365 2.133001 14.535541 6.689665 16.335853 3.756359 5.347310 
0.323482 85.275383 3.478139 -35.665285 -76.910846 -53.913264 5.637027 -0.676516 -1.412159 0.656868 -3.850940 7.327231 -3.561095 9.287683 19.506899 -1.468526 -0.887370 -0.760911 -3.116412 -5.545172 1.921407 0.183920 -1.953070 6.184749 6.772108 -12.799079 20.041800 -1.512008 0.343123 0.273365 -1.069946 -0.990053 13.552366 -0.241877 -1.719502 -10.470925 2.659038 -2.770578 6.999378 -4.530771 -4.247503 -2.405390 4.719190 2.720104 -2.983397 -12.609110 -3.600784 1.215916 -46.068834 -8.683512 12.359353 -6.113764 -23.537121 17.757593 -18.217993 -9.583894 1.336576 11.729109 7.478810 2.096141 43.496041 8.952136 13.098411 1.616090 15.162601 5.209320 16.033230 4.131139 3.385779 
0.550290 85.317093 4.211304 -38.429163 -77.125256 -51.769207 5.506872 -0.842584 -1.337583 1.006109 -3.964892 8.281104 -3.467589 9.515980 19.025136 -1.515331 -0.800367 -0.820346 -2.825085 -5.540157 2.370073 -0.178221 -2.065084 6.453431 7.367586 -12.583561 20.315724 -1.490284 0.400263 0.144579 -0.973586 -0.838001 13.710007 -0.382660 -1.801381 -10.172556 2.806066 -2.622836 6.774991 -5.008494 -4.328644 -1.736275 4.916053 2.513654 -3.199808 -11.478666 -4.911225 0.375410 -45.924296 -11.239810 12.014940 -5.761840 -24.806898 16.628853 -16.993827 -9.752238 0.321599 10.289694 8.736219 1.166479 43.054784 11.217367 12.904419 1.417294 16.197123 3.485040 14.830505 4.688598 1.832790 
